<svg id="SvgjsSvg1013" width="288" height="288" xmlns="http://www.w3.org/2000/svg" version="1.1" xmlns:xlink="http://www.w3.org/1999/xlink" xmlns:svgjs="http://svgjs.com/svgjs"><defs id="SvgjsDefs1014"></defs><g id="SvgjsG1015"><svg xmlns="http://www.w3.org/2000/svg" enable-background="new 0 0 32 32" viewBox="0 0 32 32" width="288" height="288"><path d="M16,2C8.2,2,2,8.2,2,16s6.2,14,14,14s14-6.2,14-14S23.8,2,16,2z M21.4,23L16,17.6L10.6,23L9,21.4l5.4-5.4L9,10.6L10.6,9	l5.4,5.4L21.4,9l1.6,1.6L17.6,16l5.4,5.4L21.4,23z" fill="#da1e28" class="color000 svgShape"></path><polyline points="14.4 16 9 10.6 10.6 9 16 14.4 21.4 9 23 10.6 17.6 16 23 21.4 21.4 23 16 17.6 10.6 23 9 21.4 14.4 16" opacity="0" fill="#da1e28" class="color000 svgShape"></polyline><rect width="32" height="32" fill="none"></rect></svg></g></svg>