<svg xmlns="http://www.w3.org/2000/svg" width="20.312" height="25.93" viewBox="0 0 20.312 25.93"><path d="M48.833,0H32.842V25.93H53.154V4.321Z" transform="translate(-32.842)" fill="#e4e4e4"/><path d="M49.5,2.161H32.842V0H48.833Z" transform="translate(-32.842)" fill="#007934"/><g transform="translate(5.102 18.618)"><path d="M94.411,218.58a.684.684,0,0,0-.6.314,1.515,1.515,0,0,0-.214.865q0,1.145.871,1.145a1.786,1.786,0,0,0,.51-.073,5.118,5.118,0,0,0,.5-.176v.907a2.75,2.75,0,0,1-1.124.22,1.777,1.777,0,0,1-1.378-.521,2.15,2.15,0,0,1-.479-1.507,2.4,2.4,0,0,1,.232-1.083,1.66,1.66,0,0,1,.668-.718,2.017,2.017,0,0,1,1.025-.251,2.822,2.822,0,0,1,1.23.28l-.328.844a3.676,3.676,0,0,0-.44-.174A1.537,1.537,0,0,0,94.411,218.58Z" transform="translate(-92.497 -217.7)" fill="#a4a9ad"/><path d="M137.012,220.521a1.169,1.169,0,0,1-.187.656,1.226,1.226,0,0,1-.54.445,2,2,0,0,1-.828.159,3.353,3.353,0,0,1-.665-.056,2.469,2.469,0,0,1-.559-.194v-.955a3.186,3.186,0,0,0,.638.246,2.372,2.372,0,0,0,.608.088.59.59,0,0,0,.35-.083.255.255,0,0,0,.111-.213.234.234,0,0,0-.045-.142.519.519,0,0,0-.144-.124q-.1-.062-.528-.255a2.532,2.532,0,0,1-.582-.342,1.05,1.05,0,0,1-.288-.38,1.262,1.262,0,0,1-.094-.508,1.017,1.017,0,0,1,.4-.855,1.758,1.758,0,0,1,1.1-.307,3.077,3.077,0,0,1,1.257.285l-.329.828a2.379,2.379,0,0,0-.961-.255.5.5,0,0,0-.3.073.222.222,0,0,0-.1.182.262.262,0,0,0,.121.209,4.6,4.6,0,0,0,.656.337,1.814,1.814,0,0,1,.713.5A1.075,1.075,0,0,1,137.012,220.521Z" transform="translate(-130.663 -217.701)" fill="#a4a9ad"/><path d="M171.548,218.368h1.2l-1.3,3.968h-1.262l-1.295-3.968H170.1l.54,2.011a6.138,6.138,0,0,1,.185.934q.019-.19.076-.475t.1-.448Z" transform="translate(-162.357 -218.311)" fill="#a4a9ad"/></g><path d="M219.821,4.321h4.321L219.821,0Z" transform="translate(-203.83)" fill="#d1d3d3"/><g transform="translate(5.257 6.871)"><rect width="2.846" height="1.319" transform="translate(3.476)" fill="#007934"/><rect width="2.846" height="1.319" transform="translate(6.952)" fill="#007934"/><rect width="2.846" height="1.319" transform="translate(3.476 1.909)" fill="#007934"/><rect width="2.846" height="1.319" transform="translate(6.952 1.909)" fill="#007934"/><rect width="2.846" height="1.319" transform="translate(3.476 3.817)" fill="#007934"/><rect width="2.846" height="1.319" transform="translate(6.952 3.817)" fill="#007934"/><rect width="2.846" height="1.319" transform="translate(0 3.817)" fill="#007934"/><rect width="2.846" height="1.319" transform="translate(3.476 5.726)" fill="#007934"/><rect width="2.846" height="1.319" transform="translate(6.952 5.726)" fill="#007934"/><rect width="2.846" height="1.319" transform="translate(0 5.726)" fill="#007934"/><g transform="translate(0.039 0.316)"><path d="M97.533,86.787h-.859l-.536-.859-.53.859h-.84l.911-1.406-.857-1.342h.823l.5.849.477-.849h.847l-.87,1.4Z" transform="translate(-94.769 -84.04)" fill="#007934"/></g></g></svg>