<svg id="SvgjsSvg1001" width="288" height="288" xmlns="http://www.w3.org/2000/svg" version="1.1" xmlns:xlink="http://www.w3.org/1999/xlink" xmlns:svgjs="http://svgjs.com/svgjs"><defs id="SvgjsDefs1002"></defs><g id="SvgjsG1008"><svg xmlns="http://www.w3.org/2000/svg" viewBox="0 0 32 32" width="288" height="288"><path fill="none" d="M16,8a1.5,1.5,0,1,1-1.5,1.5A1.5,1.5,0,0,1,16,8Zm4,13.875H17.125v-8H13v2.25h1.875v5.75H12v2.25h8Z"></path><path d="M16,2A14,14,0,1,0,30,16,14,14,0,0,0,16,2Zm0,6a1.5,1.5,0,1,1-1.5,1.5A1.5,1.5,0,0,1,16,8Zm4,16.125H12v-2.25h2.875v-5.75H13v-2.25h4.125v8H20Z" fill="#c1c7cd" class="color000 svgShape"></path><rect width="32" height="32" fill="none" data-name="&amp;lt;Transparent Rectangle&amp;gt;"></rect></svg></g></svg>