<svg xmlns="http://www.w3.org/2000/svg" width="20.312" height="25.93" viewBox="0 0 20.312 25.93"><path d="M48.833,0H32.842V25.93H53.154V4.321Z" transform="translate(-32.842)" fill="#e8e8e8"/><path d="M93.519,59.028c-.312-.555-1.388-.73-1.882-.808a7.487,7.487,0,0,0-1.18-.08c-.309,0-.614.013-.915.03-.111.007-.221.017-.33.027q-.169-.174-.326-.359a11.947,11.947,0,0,1-1.649-2.622A10.353,10.353,0,0,0,87.5,53.8a5.887,5.887,0,0,0-.2-2.758c-.115-.293-.423-.651-.778-.473-.408.2-.523.784-.556,1.2a3.987,3.987,0,0,0,.048.992,7.08,7.08,0,0,0,.248.953q.139.429.307.85c-.071.221-.146.438-.225.65-.184.483-.383.941-.574,1.382l-.3.642a21.754,21.754,0,0,1-1.01,1.969,11.04,11.04,0,0,0-2.3,1.08,5.022,5.022,0,0,0-.91.736,1.6,1.6,0,0,0-.508.943.6.6,0,0,0,.237.525.991.991,0,0,0,.8.1,4.385,4.385,0,0,0,2.123-1.573,17.309,17.309,0,0,0,1.314-1.665l0,0a19.9,19.9,0,0,1,2.615-.616c.425-.071.862-.128,1.308-.169a6.162,6.162,0,0,0,1.021.784,4.691,4.691,0,0,0,.914.438,6.548,6.548,0,0,0,.986.247,2.9,2.9,0,0,0,.521.029c.4-.015.965-.167,1-.647A.671.671,0,0,0,93.519,59.028Zm-9.482.882c-.186.287-.364.546-.533.773a3.829,3.829,0,0,1-1.567,1.478,1.212,1.212,0,0,1-.48.086c-.16-.009-.318-.08-.311-.262a.769.769,0,0,1,.122-.336,2.076,2.076,0,0,1,.28-.361,4.649,4.649,0,0,1,.836-.677,9.907,9.907,0,0,1,1.768-.88C84.114,59.791,84.075,59.851,84.038,59.909ZM86.366,52.7a3.264,3.264,0,0,1-.028-.9,2.126,2.126,0,0,1,.089-.424c.037-.114.116-.391.242-.427.208-.059.272.387.3.514a5.654,5.654,0,0,1-.145,2.221c-.026.112-.054.222-.083.332-.05-.137-.1-.274-.141-.412A6.753,6.753,0,0,1,86.366,52.7Zm1.427,5.668a20.226,20.226,0,0,0-2.222.488,5.7,5.7,0,0,0,.554-.9,11,11,0,0,0,.971-2.24,10.94,10.94,0,0,0,1.553,2.327q.086.1.176.19C88.474,58.272,88.129,58.318,87.792,58.372Zm5.281,1c-.029.154-.358.243-.512.267a2.934,2.934,0,0,1-1.371-.132,4.393,4.393,0,0,1-.86-.4,5.1,5.1,0,0,1-.764-.571c.293-.018.59-.029.888-.024a7.517,7.517,0,0,1,.9.057,3.167,3.167,0,0,1,1.619.615C93.055,59.254,93.083,59.317,93.073,59.372Z" transform="translate(-76.657 -46.205)" fill="#fb3449"/><path d="M49.5,2.161H32.842V0H48.833Z" transform="translate(-32.842)" fill="#fb3449"/><g transform="translate(5.061 19.319)"><path d="M95,227.2a1.374,1.374,0,0,1-.406,1.062,1.636,1.636,0,0,1-1.152.375h-.312V230H92.022v-4.1h1.42a1.736,1.736,0,0,1,1.168.34A1.211,1.211,0,0,1,95,227.2Zm-1.869.533h.2a.552.552,0,0,0,.4-.14.509.509,0,0,0,.147-.387q0-.415-.46-.415h-.286Z" transform="translate(-92.022 -225.892)" fill="#a4a9ad"/><path d="M137.971,227.857a2.12,2.12,0,0,1-.566,1.583,2.172,2.172,0,0,1-1.59.556h-1.328v-4.1h1.42a2.142,2.142,0,0,1,1.525.505A1.907,1.907,0,0,1,137.971,227.857Zm-1.151.039a1.3,1.3,0,0,0-.223-.836.825.825,0,0,0-.678-.272H135.6v2.3h.247a.894.894,0,0,0,.741-.293A1.417,1.417,0,0,0,136.82,227.9Z" transform="translate(-130.856 -225.892)" fill="#a4a9ad"/><path d="M184.9,230h-1.092v-4.1h2.425v.89H184.9v.783h1.229v.89H184.9V230Z" transform="translate(-175.963 -225.892)" fill="#a4a9ad"/></g><path d="M219.821,4.321h4.321L219.821,0Z" transform="translate(-203.83)" fill="#d1d3d3"/></svg>