<svg xmlns="http://www.w3.org/2000/svg" width="20.053" height="18.051" viewBox="0 0 20.053 18.051"><path d="M7.755,24A3.719,3.719,0,0,1,4,20.245,3.719,3.719,0,0,1,7.755,16.49a3.719,3.719,0,0,1,3.755,3.755A3.719,3.719,0,0,1,7.755,24ZM20.3,24a3.719,3.719,0,0,1-3.755-3.755A3.719,3.719,0,0,1,20.3,16.49a3.719,3.719,0,0,1,3.755,3.755A3.719,3.719,0,0,1,20.3,24ZM7.755,22.5a2.253,2.253,0,1,0-1.59-3.843A2.253,2.253,0,0,0,7.755,22.5Zm12.543,0a2.265,2.265,0,1,0-1.59-.663A2.169,2.169,0,0,0,20.3,22.5Zm-6.259-9.038a3.719,3.719,0,0,1-3.755-3.755A3.719,3.719,0,0,1,14.039,5.95a3.719,3.719,0,0,1,3.755,3.755,3.719,3.719,0,0,1-3.755,3.755Zm0-1.5a2.265,2.265,0,0,0,2.253-2.253,2.248,2.248,0,0,0-3.843-1.59,2.236,2.236,0,0,0,0,3.179A2.169,2.169,0,0,0,14.039,11.958ZM14.039,9.705ZM20.3,20.245ZM7.755,20.245Z" transform="translate(-4 -5.95)" fill="#fff"/></svg>